<svg width="113" height="18" viewBox="0 0 113 18" fill="none" xmlns="http://www.w3.org/2000/svg">
<path fill-rule="evenodd" clip-rule="evenodd" d="M71.5712 17.6871C72.3916 17.6871 73.1774 17.4941 73.9297 17.108C74.6816 16.722 75.2778 16.1505 75.7184 15.3936L75.7869 16.143C75.8323 16.582 76.0296 16.9377 76.3792 17.2102C76.7283 17.4828 77.1765 17.619 77.7234 17.619C78.0577 17.619 78.4906 17.566 79.0221 17.46V14.8713C78.7641 14.8561 78.5821 14.7804 78.4753 14.6442C78.369 14.5079 78.3158 14.2808 78.3158 13.9629V0.882812H75.2624V7.64996C74.8673 6.96871 74.3166 6.41614 73.6103 5.99221C72.9039 5.56833 72.1105 5.35638 71.2293 5.35638C70.4544 5.35638 69.7404 5.51534 69.0872 5.83325C68.434 6.15122 67.8718 6.59021 67.4011 7.15038C66.9298 7.7105 66.5616 8.36149 66.2958 9.10328C66.03 9.84513 65.8969 10.6475 65.8969 11.5104C65.8969 12.3733 66.0377 13.1795 66.3188 13.9289C66.5999 14.6783 66.9906 15.333 67.492 15.8932C67.9934 16.4533 68.5935 16.8923 69.2922 17.2102C69.9914 17.5281 70.7509 17.6871 71.5712 17.6871ZM10.6486 16.8122C9.68529 17.3955 8.53617 17.6871 7.20128 17.6871C6.24505 17.6871 5.38034 17.5243 4.60713 17.1986C3.83338 16.8728 3.17306 16.4297 2.62727 15.8692C2.08093 15.3086 1.65997 14.6572 1.36417 13.9149C1.06831 13.1725 0.92041 12.3923 0.92041 11.5742C0.92041 10.7258 1.06453 9.92668 1.35277 9.17679C1.64101 8.4269 2.05846 7.76787 2.60425 7.19975C3.15059 6.63164 3.8142 6.18094 4.59563 5.84765C5.37705 5.51436 6.25273 5.34774 7.22375 5.34774C8.19478 5.34774 9.06333 5.51436 9.82941 5.84765C10.5955 6.18094 11.2476 6.62786 11.7863 7.18842C12.3249 7.74893 12.7348 8.40035 13.0154 9.14269C13.296 9.88503 13.4362 10.6577 13.4362 11.4606C13.4362 11.6576 13.4324 11.8469 13.4247 12.0287C13.4171 12.2105 13.3984 12.362 13.3677 12.4832H4.15176C4.19724 12.9529 4.31122 13.3695 4.49315 13.7331C4.67508 14.0966 4.91017 14.4072 5.19841 14.6647C5.48665 14.9223 5.81269 15.1192 6.1771 15.2556C6.54096 15.3919 6.92017 15.4601 7.31472 15.4601C7.92188 15.4601 8.49453 15.3124 9.03319 15.017C9.57131 14.7216 9.93956 14.3315 10.1368 13.8467L12.7534 14.5739C12.3134 15.4828 11.612 16.229 10.6486 16.8122ZM4.13094 10.5432H10.3478C10.2716 9.6467 9.94011 8.92878 9.35376 8.38935C8.76687 7.84986 8.05449 7.58017 7.21663 7.58017C6.80509 7.58017 6.42041 7.65237 6.06203 7.79671C5.70419 7.94105 5.38801 8.14237 5.11347 8.40073C4.83948 8.65903 4.61425 8.97054 4.43945 9.33525C4.26409 9.69991 4.16107 10.1026 4.13094 10.5432ZM22.9454 17.6871C24.4359 17.6871 25.6141 17.3507 26.4804 16.6777C27.3473 16.0048 27.7808 15.0862 27.7808 13.9218C27.7808 13.4228 27.6931 12.9956 27.5183 12.6402C27.3435 12.2849 27.0701 11.9711 26.6974 11.6989C26.3248 11.4267 25.8459 11.1848 25.2606 10.973C24.6754 10.7613 23.9718 10.5496 23.1509 10.3379C22.7098 10.2321 22.3415 10.13 22.0451 10.0317C21.748 9.93342 21.5086 9.83133 21.3266 9.72547C21.1442 9.61961 21.011 9.49864 20.9272 9.36257C20.8439 9.22644 20.8017 9.05254 20.8017 8.84087C20.8017 8.3721 20.9765 8.03186 21.3266 7.82014C21.6763 7.60842 22.1092 7.50256 22.6265 7.50256C23.1887 7.50256 23.7553 7.60842 24.3252 7.82014C24.8957 8.03186 25.4847 8.3645 26.093 8.81815L27.3243 6.98086C26.6706 6.40624 25.9522 5.9904 25.1691 5.7333C24.386 5.47626 23.546 5.34774 22.6489 5.34774C21.9804 5.34774 21.3606 5.43844 20.7902 5.61989C20.2203 5.80139 19.7222 6.06222 19.2964 6.40246C18.8706 6.7427 18.5401 7.15476 18.3045 7.63869C18.0689 8.12256 17.9511 8.66697 17.9511 9.27181C17.9511 9.72547 18.0272 10.1149 18.179 10.44C18.3308 10.7651 18.5741 11.0524 18.9089 11.3019C19.2432 11.5514 19.6843 11.7745 20.2318 11.9711C20.7792 12.1677 21.4406 12.3718 22.216 12.5835C23.1432 12.8406 23.8123 13.0674 24.2227 13.264C24.6332 13.4606 24.8387 13.7706 24.8387 14.194C24.8387 14.6174 24.6639 14.9425 24.3143 15.1693C23.9641 15.3961 23.4852 15.5096 22.8774 15.5096C22.193 15.5096 21.5053 15.3773 20.8132 15.1126C20.1216 14.848 19.4104 14.4586 18.681 13.9445L17.5406 15.8498C18.2245 16.4396 19.0459 16.8932 20.0038 17.2108C20.9617 17.5284 21.942 17.6871 22.9454 17.6871ZM41.8974 16.8122C40.934 17.3955 39.7849 17.6871 38.45 17.6871C37.4943 17.6871 36.6296 17.5243 35.8559 17.1986C35.0821 16.8728 34.4223 16.4297 33.876 15.8692C33.3297 15.3086 32.9088 14.6572 32.6129 13.9149C32.317 13.1725 32.1696 12.3923 32.1696 11.5742C32.1696 10.7258 32.3137 9.92668 32.6019 9.17679C32.8902 8.4269 33.3072 7.76787 33.8535 7.19975C34.3993 6.63164 35.0629 6.18094 35.8444 5.84765C36.6258 5.51436 37.502 5.34774 38.4725 5.34774C39.4435 5.34774 40.3121 5.51436 41.0782 5.84765C41.8442 6.18094 42.4969 6.62786 43.0356 7.18842C43.5737 7.74893 43.9836 8.40035 44.2641 9.14269C44.5447 9.88503 44.685 10.6577 44.685 11.4606C44.685 11.6576 44.6811 11.8469 44.674 12.0287C44.6663 12.2105 44.6472 12.362 44.617 12.4832H35.4005C35.446 12.9529 35.56 13.3695 35.7419 13.7331C35.9238 14.0966 36.1595 14.4072 36.4477 14.6647C36.7359 14.9223 37.062 15.1192 37.4258 15.2556C37.7903 15.3919 38.1695 15.4601 38.564 15.4601C39.1706 15.4601 39.7433 15.3124 40.2819 15.017C40.8206 14.7216 41.1883 14.3315 41.3856 13.8467L44.0027 14.5739C43.5627 15.4828 42.8607 16.229 41.8974 16.8122ZM41.556 10.5432H35.3391C35.3693 10.1026 35.4723 9.69991 35.6476 9.33525C35.823 8.97054 36.0477 8.65903 36.3217 8.40073C36.5962 8.14237 36.9124 7.94105 37.2702 7.79671C37.6286 7.65237 38.0133 7.58017 38.4248 7.58017C39.2627 7.58017 39.9751 7.84986 40.562 8.38935C41.1483 8.92878 41.4798 9.6467 41.556 10.5432ZM52.828 10.5225V17.4436H49.7648V5.59186H52.531V7.78577C52.9732 7.03188 53.6133 6.44378 54.4517 6.0216C55.2896 5.59942 56.2348 5.3883 57.2864 5.3883C58.0333 5.3883 58.6432 5.52399 59.1156 5.79543C59.5879 6.06681 59.954 6.42118 60.2132 6.85847C60.4718 7.29571 60.651 7.79332 60.7502 8.3512C60.8494 8.90913 60.8987 9.47456 60.8987 10.0475V17.4436H57.8355V10.7939C57.8355 9.84398 57.6678 9.15041 57.3324 8.71311C56.9971 8.27582 56.5318 8.0572 55.9378 8.0572C55.6326 8.0572 55.3202 8.11752 55.0002 8.23811C54.6802 8.35875 54.3793 8.52838 54.0971 8.74705C53.8149 8.96567 53.5601 9.22578 53.3311 9.52732C53.1026 9.82892 52.9349 10.1606 52.828 10.5225ZM71.1252 14.736C71.529 14.9174 71.9745 15.0082 72.4623 15.0082C72.7516 15.0082 73.0491 14.959 73.3538 14.8608C73.6585 14.7625 73.9402 14.6226 74.1994 14.4412C74.4585 14.2598 74.6909 14.0481 74.8964 13.8061C75.1024 13.5643 75.2586 13.2997 75.3649 13.0124V10.1775C75.2433 9.84491 75.0717 9.53876 74.8509 9.25906C74.6301 8.97935 74.3785 8.73742 74.0963 8.53331C73.8147 8.32919 73.5177 8.16668 73.2053 8.04571C72.893 7.9248 72.5839 7.86431 72.2792 7.86431C71.8222 7.86431 71.3992 7.96256 71.0106 8.15912C70.6221 8.35568 70.2906 8.62406 70.0166 8.96425C69.7421 9.30438 69.5289 9.69372 69.3766 10.1322C69.2242 10.5707 69.148 11.0242 69.148 11.4929C69.148 11.9918 69.2319 12.453 69.3996 12.8763C69.5667 13.2997 69.7958 13.6701 70.0851 13.9876C70.3744 14.3051 70.7213 14.5546 71.1252 14.736ZM90.098 17.6871C91.4329 17.6871 92.5826 17.3955 93.5459 16.8122C94.5093 16.229 95.2107 15.4828 95.6507 14.5739L93.0336 13.8467C92.8363 14.3315 92.4686 14.7216 91.9299 15.017C91.3912 15.3124 90.8186 15.4601 90.212 15.4601C89.8174 15.4601 89.4382 15.3919 89.0738 15.2556C88.71 15.1192 88.3839 14.9223 88.0957 14.6647C87.8074 14.4072 87.5723 14.0966 87.3904 13.7331C87.2079 13.3695 87.0945 12.9529 87.049 12.4832H96.265C96.2952 12.362 96.3143 12.2105 96.322 12.0287C96.3297 11.8469 96.3335 11.6576 96.3335 11.4606C96.3335 10.6577 96.1927 9.88503 95.9121 9.14269C95.6315 8.40035 95.2222 7.74893 94.6835 7.18842C94.1449 6.62786 93.4928 6.18094 92.7267 5.84765C91.9601 5.51436 91.092 5.34774 90.121 5.34774C89.15 5.34774 88.2738 5.51436 87.4923 5.84765C86.7115 6.18094 86.0473 6.63164 85.5015 7.19975C84.9552 7.76787 84.5382 8.4269 84.2499 9.17679C83.9617 9.92668 83.8176 10.7258 83.8176 11.5742C83.8176 12.3923 83.9655 13.1725 84.2614 13.9149C84.5568 14.6572 84.9782 15.3086 85.524 15.8692C86.0703 16.4297 86.7301 16.8728 87.5039 17.1986C88.2776 17.5243 89.1423 17.6871 90.098 17.6871ZM86.906 10.5432H93.1229C93.0467 9.6467 92.7157 8.92878 92.1288 8.38935C91.5419 7.84986 90.8296 7.58017 89.9917 7.58017C89.5801 7.58017 89.1955 7.65237 88.8371 7.79671C88.4792 7.94105 88.1631 8.14237 87.8885 8.40073C87.6145 8.65903 87.3899 8.97054 87.2145 9.33525C87.0392 9.69991 86.9361 10.1026 86.906 10.5432ZM106.869 17.6871C107.836 17.6871 108.704 17.5205 109.474 17.1872C110.244 16.8539 110.893 16.4032 111.422 15.8351C111.95 15.267 112.358 14.6117 112.645 13.8694C112.932 13.1271 113.075 12.3469 113.075 11.5288C113.075 10.6956 112.932 9.90774 112.645 9.16546C112.358 8.42312 111.947 7.76787 111.411 7.19975C110.874 6.63164 110.225 6.18094 109.463 5.84765C108.7 5.51436 107.836 5.34774 106.869 5.34774C105.903 5.34774 105.035 5.51436 104.264 5.84765C103.495 6.18094 102.841 6.63164 102.305 7.19975C101.769 7.76787 101.358 8.42312 101.071 9.16546C100.784 9.90774 100.641 10.6956 100.641 11.5288C100.641 12.3469 100.784 13.1271 101.071 13.8694C101.358 14.6117 101.769 15.267 102.305 15.8351C102.841 16.4032 103.495 16.8539 104.264 17.1872C105.035 17.5205 105.903 17.6871 106.869 17.6871ZM105.584 14.7473C105.965 14.9212 106.376 15.0082 106.818 15.0082C107.259 15.0082 107.67 14.9212 108.05 14.7473C108.431 14.5734 108.762 14.3278 109.044 14.0103C109.326 13.6928 109.546 13.3148 109.706 12.8763C109.867 12.4379 109.946 11.9541 109.946 11.4249C109.946 10.9108 109.867 10.4346 109.706 9.99609C109.546 9.55765 109.326 9.17969 109.044 8.86216C108.762 8.54464 108.431 8.29898 108.05 8.12508C107.67 7.95123 107.259 7.86431 106.818 7.86431C106.376 7.86431 105.965 7.95501 105.584 8.13646C105.203 8.31786 104.872 8.56735 104.591 8.88482C104.309 9.20235 104.088 9.58031 103.928 10.0188C103.769 10.4572 103.689 10.9335 103.689 11.4475C103.689 11.9767 103.769 12.4568 103.928 12.8877C104.088 13.3186 104.309 13.6928 104.591 14.0103C104.872 14.3278 105.203 14.5734 105.584 14.7473Z" fill="black"/>
</svg>
