<svg width="166" height="24" viewBox="0 0 166 24" fill="none" xmlns="http://www.w3.org/2000/svg">
<g clip-path="url(#clip0_215_8378)">
<path fill-rule="evenodd" clip-rule="evenodd" d="M124.571 20.6871C125.392 20.6871 126.177 20.4941 126.93 20.108C127.682 19.722 128.278 19.1505 128.718 18.3936L128.787 19.143C128.832 19.582 129.03 19.9377 129.379 20.2102C129.728 20.4828 130.177 20.619 130.723 20.619C131.058 20.619 131.491 20.566 132.022 20.46V17.8713C131.764 17.8561 131.582 17.7804 131.475 17.6442C131.369 17.5079 131.316 17.2808 131.316 16.9629V3.88281H128.262V10.65C127.867 9.96871 127.317 9.41614 126.61 8.99221C125.904 8.56833 125.11 8.35638 124.229 8.35638C123.454 8.35638 122.74 8.51534 122.087 8.83325C121.434 9.15122 120.872 9.59021 120.401 10.1504C119.93 10.7105 119.562 11.3615 119.296 12.1033C119.03 12.8451 118.897 13.6475 118.897 14.5104C118.897 15.3733 119.038 16.1795 119.319 16.9289C119.6 17.6783 119.991 18.333 120.492 18.8932C120.993 19.4533 121.593 19.8923 122.292 20.2102C122.991 20.5281 123.751 20.6871 124.571 20.6871ZM63.6486 19.8122C62.6853 20.3955 61.5362 20.6871 60.2013 20.6871C59.2451 20.6871 58.3803 20.5243 57.6071 20.1986C56.8334 19.8728 56.1731 19.4297 55.6273 18.8692C55.0809 18.3086 54.66 17.6572 54.3642 16.9149C54.0683 16.1725 53.9204 15.3923 53.9204 14.5742C53.9204 13.7258 54.0645 12.9267 54.3528 12.1768C54.641 11.4269 55.0585 10.7679 55.6043 10.1998C56.1506 9.63164 56.8142 9.18094 57.5956 8.84765C58.377 8.51436 59.2527 8.34774 60.2238 8.34774C61.1948 8.34774 62.0633 8.51436 62.8294 8.84765C63.5955 9.18094 64.2476 9.62786 64.7863 10.1884C65.3249 10.7489 65.7348 11.4003 66.0154 12.1427C66.296 12.885 66.4362 13.6577 66.4362 14.4606C66.4362 14.6576 66.4324 14.8469 66.4247 15.0287C66.4171 15.2105 66.3984 15.362 66.3677 15.4832H57.1518C57.1972 15.9529 57.3112 16.3695 57.4932 16.7331C57.6751 17.0966 57.9102 17.4072 58.1984 17.6647C58.4866 17.9223 58.8127 18.1192 59.1771 18.2556C59.541 18.3919 59.9202 18.4601 60.3147 18.4601C60.9219 18.4601 61.4945 18.3124 62.0332 18.017C62.5713 17.7216 62.9396 17.3315 63.1368 16.8467L65.7534 17.5739C65.3134 18.4828 64.612 19.229 63.6486 19.8122ZM57.1309 13.5432H63.3478C63.2716 12.6467 62.9401 11.9288 62.3538 11.3893C61.7669 10.8499 61.0545 10.5802 60.2166 10.5802C59.8051 10.5802 59.4204 10.6524 59.062 10.7967C58.7042 10.9411 58.388 11.1424 58.1135 11.4007C57.8395 11.659 57.6143 11.9705 57.4394 12.3353C57.2641 12.6999 57.1611 13.1026 57.1309 13.5432ZM75.9454 20.6871C77.4359 20.6871 78.6141 20.3507 79.4804 19.6777C80.3473 19.0048 80.7808 18.0862 80.7808 16.9218C80.7808 16.4228 80.6931 15.9956 80.5183 15.6402C80.3435 15.2849 80.0701 14.9711 79.6974 14.6989C79.3248 14.4267 78.8459 14.1848 78.2606 13.973C77.6754 13.7613 76.9718 13.5496 76.1509 13.3379C75.7098 13.2321 75.3415 13.13 75.0451 13.0317C74.748 12.9334 74.5086 12.8313 74.3266 12.7255C74.1442 12.6196 74.011 12.4986 73.9272 12.3626C73.8439 12.2264 73.8017 12.0525 73.8017 11.8409C73.8017 11.3721 73.9765 11.0319 74.3266 10.8201C74.6763 10.6084 75.1092 10.5026 75.6265 10.5026C76.1887 10.5026 76.7553 10.6084 77.3252 10.8201C77.8957 11.0319 78.4847 11.3645 79.093 11.8182L80.3243 9.98086C79.6706 9.40624 78.9522 8.9904 78.1691 8.7333C77.386 8.47626 76.546 8.34774 75.6489 8.34774C74.9804 8.34774 74.3606 8.43844 73.7902 8.61989C73.2203 8.80139 72.7222 9.06222 72.2964 9.40246C71.8706 9.7427 71.5401 10.1548 71.3045 10.6387C71.0689 11.1226 70.9511 11.667 70.9511 12.2718C70.9511 12.7255 71.0272 13.1149 71.179 13.44C71.3308 13.7651 71.5741 14.0524 71.9089 14.3019C72.2432 14.5514 72.6843 14.7745 73.2318 14.9711C73.7792 15.1677 74.4406 15.3718 75.216 15.5835C76.1432 15.8406 76.8123 16.0674 77.2227 16.264C77.6332 16.4606 77.8387 16.7706 77.8387 17.194C77.8387 17.6174 77.6639 17.9425 77.3143 18.1693C76.9641 18.3961 76.4852 18.5096 75.8774 18.5096C75.193 18.5096 74.5053 18.3773 73.8132 18.1126C73.1216 17.848 72.4104 17.4586 71.681 16.9445L70.5406 18.8498C71.2245 19.4396 72.0459 19.8932 73.0038 20.2108C73.9617 20.5284 74.942 20.6871 75.9454 20.6871ZM94.8974 19.8122C93.934 20.3955 92.7849 20.6871 91.45 20.6871C90.4943 20.6871 89.6296 20.5243 88.8559 20.1986C88.0821 19.8728 87.4223 19.4297 86.876 18.8692C86.3297 18.3086 85.9088 17.6572 85.6129 16.9149C85.317 16.1725 85.1696 15.3923 85.1696 14.5742C85.1696 13.7258 85.3137 12.9267 85.6019 12.1768C85.8902 11.4269 86.3072 10.7679 86.8535 10.1998C87.3993 9.63164 88.0629 9.18094 88.8444 8.84765C89.6258 8.51436 90.502 8.34774 91.4725 8.34774C92.4435 8.34774 93.3121 8.51436 94.0782 8.84765C94.8442 9.18094 95.4969 9.62786 96.0356 10.1884C96.5737 10.7489 96.9836 11.4003 97.2641 12.1427C97.5447 12.885 97.685 13.6577 97.685 14.4606C97.685 14.6576 97.6811 14.8469 97.674 15.0287C97.6663 15.2105 97.6472 15.362 97.617 15.4832H88.4005C88.446 15.9529 88.56 16.3695 88.7419 16.7331C88.9238 17.0966 89.1595 17.4072 89.4477 17.6647C89.7359 17.9223 90.062 18.1192 90.4258 18.2556C90.7903 18.3919 91.1695 18.4601 91.564 18.4601C92.1706 18.4601 92.7433 18.3124 93.2819 18.017C93.8206 17.7216 94.1883 17.3315 94.3856 16.8467L97.0027 17.5739C96.5627 18.4828 95.8607 19.229 94.8974 19.8122ZM94.556 13.5432H88.3391C88.3693 13.1026 88.4723 12.6999 88.6476 12.3353C88.823 11.9705 89.0477 11.659 89.3217 11.4007C89.5962 11.1424 89.9124 10.9411 90.2702 10.7967C90.6286 10.6524 91.0133 10.5802 91.4248 10.5802C92.2627 10.5802 92.9751 10.8499 93.562 11.3893C94.1483 11.9288 94.4798 12.6467 94.556 13.5432ZM105.828 13.5225V20.4436H102.765V8.59186H105.531V10.7858C105.973 10.0319 106.613 9.44378 107.452 9.0216C108.29 8.59942 109.235 8.3883 110.286 8.3883C111.033 8.3883 111.643 8.52399 112.116 8.79543C112.588 9.06681 112.954 9.42118 113.213 9.85847C113.472 10.2957 113.651 10.7933 113.75 11.3512C113.849 11.9091 113.899 12.4746 113.899 13.0475V20.4436H110.835V13.7939C110.835 12.844 110.668 12.1504 110.332 11.7131C109.997 11.2758 109.532 11.0572 108.938 11.0572C108.633 11.0572 108.32 11.1175 108 11.2381C107.68 11.3587 107.379 11.5284 107.097 11.7471C106.815 11.9657 106.56 12.2258 106.331 12.5273C106.103 12.8289 105.935 13.1606 105.828 13.5225ZM124.125 17.736C124.529 17.9174 124.975 18.0082 125.462 18.0082C125.752 18.0082 126.049 17.959 126.354 17.8608C126.658 17.7625 126.94 17.6226 127.199 17.4412C127.459 17.2598 127.691 17.0481 127.896 16.8061C128.102 16.5643 128.259 16.2997 128.365 16.0124V13.1775C128.243 12.8449 128.072 12.5388 127.851 12.2591C127.63 11.9794 127.379 11.7374 127.096 11.5333C126.815 11.3292 126.518 11.1667 126.205 11.0457C125.893 10.9248 125.584 10.8643 125.279 10.8643C124.822 10.8643 124.399 10.9626 124.011 11.1591C123.622 11.3557 123.291 11.6241 123.017 11.9642C122.742 12.3044 122.529 12.6937 122.377 13.1322C122.224 13.5707 122.148 14.0242 122.148 14.4929C122.148 14.9918 122.232 15.453 122.4 15.8763C122.567 16.2997 122.796 16.6701 123.085 16.9876C123.374 17.3051 123.721 17.5546 124.125 17.736ZM143.098 20.6871C144.433 20.6871 145.583 20.3955 146.546 19.8122C147.509 19.229 148.211 18.4828 148.651 17.5739L146.034 16.8467C145.836 17.3315 145.469 17.7216 144.93 18.017C144.391 18.3124 143.819 18.4601 143.212 18.4601C142.817 18.4601 142.438 18.3919 142.074 18.2556C141.71 18.1192 141.384 17.9223 141.096 17.6647C140.807 17.4072 140.572 17.0966 140.39 16.7331C140.208 16.3695 140.094 15.9529 140.049 15.4832H149.265C149.295 15.362 149.314 15.2105 149.322 15.0287C149.33 14.8469 149.334 14.6576 149.334 14.4606C149.334 13.6577 149.193 12.885 148.912 12.1427C148.632 11.4003 148.222 10.7489 147.684 10.1884C147.145 9.62786 146.493 9.18094 145.727 8.84765C144.96 8.51436 144.092 8.34774 143.121 8.34774C142.15 8.34774 141.274 8.51436 140.492 8.84765C139.711 9.18094 139.047 9.63164 138.502 10.1998C137.955 10.7679 137.538 11.4269 137.25 12.1768C136.962 12.9267 136.818 13.7258 136.818 14.5742C136.818 15.3923 136.966 16.1725 137.261 16.9149C137.557 17.6572 137.978 18.3086 138.524 18.8692C139.07 19.4297 139.73 19.8728 140.504 20.1986C141.278 20.5243 142.142 20.6871 143.098 20.6871ZM139.906 13.5432H146.123C146.047 12.6467 145.716 11.9288 145.129 11.3893C144.542 10.8499 143.83 10.5802 142.992 10.5802C142.58 10.5802 142.195 10.6524 141.837 10.7967C141.479 10.9411 141.163 11.1424 140.889 11.4007C140.615 11.659 140.39 11.9705 140.215 12.3353C140.039 12.6999 139.936 13.1026 139.906 13.5432ZM159.869 20.6871C160.836 20.6871 161.704 20.5205 162.474 20.1872C163.244 19.8539 163.893 19.4032 164.422 18.8351C164.95 18.267 165.358 17.6117 165.645 16.8694C165.932 16.1271 166.075 15.3469 166.075 14.5288C166.075 13.6956 165.932 12.9077 165.645 12.1655C165.358 11.4231 164.947 10.7679 164.411 10.1998C163.874 9.63164 163.225 9.18094 162.463 8.84765C161.7 8.51436 160.836 8.34774 159.869 8.34774C158.903 8.34774 158.035 8.51436 157.264 8.84765C156.495 9.18094 155.841 9.63164 155.305 10.1998C154.769 10.7679 154.358 11.4231 154.071 12.1655C153.784 12.9077 153.641 13.6956 153.641 14.5288C153.641 15.3469 153.784 16.1271 154.071 16.8694C154.358 17.6117 154.769 18.267 155.305 18.8351C155.841 19.4032 156.495 19.8539 157.264 20.1872C158.035 20.5205 158.903 20.6871 159.869 20.6871ZM158.584 17.7473C158.965 17.9212 159.376 18.0082 159.818 18.0082C160.259 18.0082 160.67 17.9212 161.05 17.7473C161.431 17.5734 161.762 17.3278 162.044 17.0103C162.326 16.6928 162.546 16.3148 162.706 15.8763C162.867 15.4379 162.946 14.9541 162.946 14.4249C162.946 13.9108 162.867 13.4346 162.706 12.9961C162.546 12.5576 162.326 12.1797 162.044 11.8622C161.762 11.5446 161.431 11.299 161.05 11.1251C160.67 10.9512 160.259 10.8643 159.818 10.8643C159.376 10.8643 158.965 10.955 158.584 11.1365C158.203 11.3179 157.872 11.5674 157.591 11.8848C157.309 12.2024 157.088 12.5803 156.928 13.0188C156.769 13.4572 156.689 13.9335 156.689 14.4475C156.689 14.9767 156.769 15.4568 156.928 15.8877C157.088 16.3186 157.309 16.6928 157.591 17.0103C157.872 17.3278 158.203 17.5734 158.584 17.7473Z" fill="#64D6D7"/>
<path fill-rule="evenodd" clip-rule="evenodd" d="M0 0.306641L27.219 13.8423C28.5729 12.9516 31.9708 11.373 34.2401 12.0354C38.3193 13.2265 37.0128 16.3622 36.4158 17.1798C36.1681 16.8709 35.9202 16.3763 35.6726 16.0668C26.0881 26.1356 13.3825 24.3054 9.01109 23.9478C10.8998 22.7736 12.9749 21.5059 14.8636 20.332C9.25757 19.4993 5.91214 15.9013 4.45901 13.7496C8.63906 15.0474 13.0989 16.4383 17.279 17.7363C11.8615 15.2945 1.98225 10.7825 2.60111 11.0612C2.16834 9.63977 1.73407 8.31065 1.30063 6.88925C6.99769 9.23762 13.3469 11.8649 19.0441 14.2133C12.9133 11.0923 6.13067 7.69223 0 4.57128V0.306641Z" fill="#64D6D7"/>
<path fill-rule="evenodd" clip-rule="evenodd" d="M43.1363 1.42676C42.8778 6.17954 40.144 10.2297 38.2191 13.5345C36.748 11.7211 36.1162 10.5205 31.4463 10.8542C36.9288 6.28206 38.8373 5.12434 43.1363 1.42676Z" fill="#64D6D7"/>
</g>
<defs>
<clipPath id="clip0_215_8378">
<rect width="166" height="24" fill="white"/>
</clipPath>
</defs>
</svg>
